<?xml version="1.0" encoding="utf-8"?>
<!-- Generator: Adobe Illustrator 24.0.0, SVG Export Plug-In . SVG Version: 6.00 Build 0)  -->
<svg version="1.1" id="NEW" xmlns="http://www.w3.org/2000/svg" xmlns:xlink="http://www.w3.org/1999/xlink" x="0px" y="0px"
	 viewBox="0 0 125 125" style="enable-background:new 0 0 474.5 113.5;" xml:space="preserve">
<style type="text/css">
	.st0{fill:url(#SVGID_1_);}	
	.st1{fill:url(#SVGID_2_);}	
	.st2{fill:url(#SVGID_3_);}	
	.st3{fill:url(#SVGID_4_);}	
	.st4{fill:#070866;stroke:#070866;stroke-miterlimit:10;}	
	.st5{fill:url(#SVGID_5_);}	
	.st6{fill:url(#SVGID_6_);}	
	.st7{fill:url(#SVGID_7_);}	
	.st8{fill:url(#SVGID_8_);}	
	.st9{fill:url(#SVGID_9_);}	
	.st10{fill:url(#SVGID_10_);}
</style>
<title>datachatV3-EDIT</title>
<g>
	<linearGradient id="SVGID_5_" gradientUnits="userSpaceOnUse" x1="-1.8291" y1="97.6134" x2="82.5316" y2="14.8443">
		<stop  offset="0" style="stop-color:#7B1AC3"/>
		<stop  offset="0" style="stop-color:#791ABF"/>
		<stop  offset="1" style="stop-color:#B407A7"/>
	</linearGradient>
	<path class="st5" d="M60.8,56c0-5.1-2.7-9.8-7.2-12.4l-37-21.4c-4-2.3-9-2.3-13,0L0,24.3l43.5,25.1c4.4,2.6,7.2,7.3,7.2,12.4v41.5
		L20.3,85.8c-6.3-3.6-14-3.6-20.3,0l0,0l10.1,5.9v14.6l12.7-7.3l22.8,13.2c3.1,1.8,7,1.8,10.1,0h0c3.1-1.8,5.1-5.2,5.1-8.8L60.8,56z
		"/>
	<g>
		<linearGradient id="SVGID_6_" gradientUnits="userSpaceOnUse" x1="14.7135" y1="99.4117" x2="80.0372" y2="35.3206">
			<stop  offset="0" style="stop-color:#7B1AC3"/>
			<stop  offset="0" style="stop-color:#791ABF"/>
			<stop  offset="1" style="stop-color:#B407A7"/>
		</linearGradient>
		<path class="st6" d="M40.6,79.9c2.8,1.6,5.1,0.3,5.1-2.9c0-3.2-2.3-7.2-5.1-8.8l0,0c-2.8-1.6-5.1-0.3-5.1,2.9
			C35.5,74.3,37.8,78.3,40.6,79.9L40.6,79.9z"/>
	</g>
	<g>
		<linearGradient id="SVGID_7_" gradientUnits="userSpaceOnUse" x1="2.1227" y1="88.0929" x2="67.4485" y2="23.9996">
			<stop  offset="0" style="stop-color:#7B1AC3"/>
			<stop  offset="0" style="stop-color:#791ABF"/>
			<stop  offset="1" style="stop-color:#B407A7"/>
		</linearGradient>
		<path class="st7" d="M25.4,71.1c2.8,1.6,5.1,0.3,5.1-2.9c0-3.2-2.3-7.2-5.1-8.8c-2.8-1.6-5.1-0.3-5.1,2.9v0
			C20.3,65.6,22.6,69.5,25.4,71.1z"/>
	</g>
	<g>
		<linearGradient id="SVGID_8_" gradientUnits="userSpaceOnUse" x1="-10.4774" y1="76.7679" x2="54.8518" y2="12.6713">
			<stop  offset="0" style="stop-color:#7B1AC3"/>
			<stop  offset="0" style="stop-color:#791ABF"/>
			<stop  offset="1" style="stop-color:#B407A7"/>
		</linearGradient>
		<path class="st8" d="M15.2,59.4c0-3.2-2.3-7.2-5.1-8.8s-5.1-0.3-5.1,2.9s2.3,7.2,5.1,8.8S15.2,62.7,15.2,59.4L15.2,59.4z"/>
	</g>
	<linearGradient id="SVGID_9_" gradientUnits="userSpaceOnUse" x1="1.7451" y1="101.2564" x2="86.1059" y2="18.4874">
		<stop  offset="0" style="stop-color:#7B1AC3"/>
		<stop  offset="0" style="stop-color:#791ABF"/>
		<stop  offset="1" style="stop-color:#B407A7"/>
	</linearGradient>
	<path class="st9" d="M71.4,33.4L34.4,12c-4-2.3-9-2.3-13,0l-3.6,2.1l43.5,25.1c4.4,2.6,7.2,7.3,7.2,12.4v41.5
		c0,8.8-2.5,13.2-2.5,13.2l2.5-1.5l5.1-2.9c3.1-1.8,5.1-5.2,5.1-8.8V45.8C78.6,40.6,75.8,35.9,71.4,33.4z"/>
	<linearGradient id="SVGID_10_" gradientUnits="userSpaceOnUse" x1="5.3192" y1="104.8992" x2="89.6799" y2="22.1301">
		<stop  offset="0" style="stop-color:#7B1AC3"/>
		<stop  offset="0" style="stop-color:#791ABF"/>
		<stop  offset="1" style="stop-color:#B407A7"/>
	</linearGradient>
	<path class="st10" d="M89.1,23.1l-37-21.4c-4-2.3-9-2.3-13,0l-3.7,2.1L79,29c4.4,2.6,7.2,7.3,7.2,12.4v41.5
		c0,8.8-2.5,13.2-2.5,13.2l2.5-1.5l5.1-2.9c3.1-1.8,5.1-5.2,5.1-8.8l0-47.3C96.3,30.4,93.6,25.7,89.1,23.1z"/>
</g>
</svg>
